#Comment line ignore any data following # character 
#Hierarchical Translation and Rotation (.htr) file 
[Header]	
#Header keywords are followed by a single value 
FileType HTR		#Single word string
DataType HTRS		#Translation followed by rotation and scale data
FileVersion 1		#integer
NumSegments 84		#integer
NumFrames 2		#integer
DataFrameRate 30		#integer, data frame rate in this file
EulerRotationOrder ZYX
CalibrationUnits mm
RotationUnits Degrees
GlobalAxisofGravity Y
BoneLengthAxis Y
ScaleFactor 1.00
[SegmentNames&Hierarchy]
#CHILD	PARENT
MASTER GLOBAL
root MASTER
chest root
L_mid_tent01 root
R_mid_tent01 root
spine01 root
Bip01_Neck chest
L_humerus chest
R_humerus chest
weapon_bone chest
Bip01_Head Bip01_Neck
eye_left_bone Bip01_Head
eye_right_bone Bip01_Head
L_forearm L_humerus
L_front_hand L_forearm
L_weapon_bone L_forearm
L_front_hand01_01 L_front_hand
L_front_hand02_01 L_front_hand
L_front_hand03_01 L_front_hand
L_front_hand01_02 L_front_hand01_01
L_front_hand02_02 L_front_hand02_01
L_front_hand03_02 L_front_hand03_01
R_forearm R_humerus
R_front_hand R_forearm
R_weapon_bone R_forearm
R_front_hand01_01 R_front_hand
R_front_hand02_01 R_front_hand
R_front_hand03_01 R_front_hand
R_front_hand01_02 R_front_hand01_01
R_front_hand02_02 R_front_hand02_01
R_front_hand03_02 R_front_hand03_01
null_rope01_connect L_mid_tent01
Rope1_Seg01 null_rope01_connect
Rope1_Seg02 Rope1_Seg01
Rope1_Seg03 Rope1_Seg02
Rope1_Seg04 Rope1_Seg03
Rope1_Seg05 Rope1_Seg04
Rope1_Seg06 Rope1_Seg05
Rope1_Seg07 Rope1_Seg06
Rope1_Seg09 Rope1_Seg07
L_mid_hand01 Rope1_Seg09
L_mid_hand02 Rope1_Seg09
L_mid_hand03 Rope1_Seg09
null_rope02_connect R_mid_tent01
Rope2_Seg01 null_rope02_connect
Rope2_Seg02 Rope2_Seg01
Rope2_Seg03 Rope2_Seg02
Rope2_Seg04 Rope2_Seg03
Rope2_Seg05 Rope2_Seg04
Rope2_Seg06 Rope2_Seg05
Rope2_Seg07 Rope2_Seg06
Rope2_Seg09 Rope2_Seg07
R_mid_hand01 Rope2_Seg09
R_mid_hand02 Rope2_Seg09
R_mid_hand03 Rope2_Seg09
spine02 spine01
spine03 spine02
pelvis spine03
null_rope03_connect pelvis
null_rope04_connect pelvis
Rope3_Seg01 null_rope03_connect
Rope3_Seg02 Rope3_Seg01
Rope3_Seg03 Rope3_Seg02
Rope3_Seg04 Rope3_Seg03
Rope3_Seg05 Rope3_Seg04
Rope3_Seg06 Rope3_Seg05
Rope3_Seg07 Rope3_Seg06
Rope3_Seg08 Rope3_Seg07
Rope3_Seg09 Rope3_Seg08
R_rear_hand01 Rope3_Seg09
R_rear_hand02 Rope3_Seg09
R_rear_hand03 Rope3_Seg09
Rope4_Seg01 null_rope04_connect
Rope4_Seg02 Rope4_Seg01
Rope4_Seg03 Rope4_Seg02
Rope4_Seg04 Rope4_Seg03
Rope4_Seg05 Rope4_Seg04
Rope4_Seg06 Rope4_Seg05
Rope4_Seg07 Rope4_Seg06
Rope4_Seg08 Rope4_Seg07
Rope4_Seg09 Rope4_Seg08
L_rear_hand01 Rope4_Seg09
L_rear_hand02 Rope4_Seg09
L_rear_hand03 Rope4_Seg09
[BasePosition]
#SegmentName Tx, Ty, Tz, Rx, Ry, Rz, BoneLength
MASTER 0.000000 0.000000 0.000000 -90.000000 0.000000 0.000000 10.000000 
root 0.000000 0.000000 0.000000 0.000000 0.000000 0.000000 10.000000 
chest 0.000000 0.000000 0.000000 0.000000 0.000000 0.000000 10.000000 
L_mid_tent01 0.000000 0.000000 0.000000 0.000000 0.000000 0.000000 10.000000 
R_mid_tent01 0.000000 0.000000 0.000000 0.000000 0.000000 0.000000 10.000000 
spine01 0.000000 0.000000 0.000000 0.000000 0.000000 0.000000 10.000000 
Bip01_Neck 0.000000 0.000000 0.000000 0.000000 0.000000 0.000000 10.000000 
L_humerus 0.000000 0.000000 0.000000 0.000000 0.000000 0.000000 10.000000 
R_humerus 0.000000 0.000000 0.000000 0.000000 0.000000 0.000000 10.000000 
weapon_bone 0.000000 0.000000 0.000000 0.000000 0.000000 0.000000 10.000000 
Bip01_Head 0.000000 0.000000 0.000000 0.000000 0.000000 0.000000 10.000000 
eye_left_bone 0.000000 0.000000 0.000000 0.000000 0.000000 0.000000 10.000000 
eye_right_bone 0.000000 0.000000 0.000000 0.000000 0.000000 0.000000 10.000000 
L_forearm 0.000000 0.000000 0.000000 0.000000 0.000000 0.000000 10.000000 
L_front_hand 0.000000 0.000000 0.000000 0.000000 0.000000 0.000000 10.000000 
L_weapon_bone 0.000000 0.000000 0.000000 0.000000 0.000000 0.000000 10.000000 
L_front_hand01_01 0.000000 0.000000 0.000000 0.000000 0.000000 0.000000 10.000000 
L_front_hand02_01 0.000000 0.000000 0.000000 0.000000 0.000000 0.000000 10.000000 
L_front_hand03_01 0.000000 0.000000 0.000000 0.000000 0.000000 0.000000 10.000000 
L_front_hand01_02 0.000000 0.000000 0.000000 0.000000 0.000000 0.000000 10.000000 
L_front_hand02_02 0.000000 0.000000 0.000000 0.000000 0.000000 0.000000 10.000000 
L_front_hand03_02 0.000000 0.000000 0.000000 0.000000 0.000000 0.000000 10.000000 
R_forearm 0.000000 0.000000 0.000000 0.000000 0.000000 0.000000 10.000000 
R_front_hand 0.000000 0.000000 0.000000 0.000000 0.000000 0.000000 10.000000 
R_weapon_bone 0.000000 0.000000 0.000000 0.000000 0.000000 0.000000 10.000000 
R_front_hand01_01 0.000000 0.000000 0.000000 0.000000 0.000000 0.000000 10.000000 
R_front_hand02_01 0.000000 0.000000 0.000000 0.000000 0.000000 0.000000 10.000000 
R_front_hand03_01 0.000000 0.000000 0.000000 0.000000 0.000000 0.000000 10.000000 
R_front_hand01_02 0.000000 0.000000 0.000000 0.000000 0.000000 0.000000 10.000000 
R_front_hand02_02 0.000000 0.000000 0.000000 0.000000 0.000000 0.000000 10.000000 
R_front_hand03_02 0.000000 0.000000 0.000000 0.000000 0.000000 0.000000 10.000000 
null_rope01_connect 0.000000 0.000000 0.000000 0.000000 0.000000 0.000000 10.000000 
Rope1_Seg01 0.000000 0.000000 0.000000 0.000000 0.000000 0.000000 10.000000 
Rope1_Seg02 0.000000 0.000000 0.000000 0.000000 0.000000 0.000000 10.000000 
Rope1_Seg03 0.000000 0.000000 0.000000 0.000000 0.000000 0.000000 10.000000 
Rope1_Seg04 0.000000 0.000000 0.000000 0.000000 0.000000 0.000000 10.000000 
Rope1_Seg05 0.000000 0.000000 0.000000 0.000000 0.000000 0.000000 10.000000 
Rope1_Seg06 0.000000 0.000000 0.000000 0.000000 0.000000 0.000000 10.000000 
Rope1_Seg07 0.000000 0.000000 0.000000 0.000000 0.000000 0.000000 10.000000 
Rope1_Seg09 0.000000 0.000000 0.000000 0.000000 0.000000 0.000000 10.000000 
L_mid_hand01 0.000000 0.000000 0.000000 0.000000 0.000000 0.000000 10.000000 
L_mid_hand02 0.000000 0.000000 0.000000 0.000000 0.000000 0.000000 10.000000 
L_mid_hand03 0.000000 0.000000 0.000000 0.000000 0.000000 0.000000 10.000000 
null_rope02_connect 0.000000 0.000000 0.000000 0.000000 0.000000 0.000000 10.000000 
Rope2_Seg01 0.000000 0.000000 0.000000 0.000000 0.000000 0.000000 10.000000 
Rope2_Seg02 0.000000 0.000000 0.000000 0.000000 0.000000 0.000000 10.000000 
Rope2_Seg03 0.000000 0.000000 0.000000 0.000000 0.000000 0.000000 10.000000 
Rope2_Seg04 0.000000 0.000000 0.000000 0.000000 0.000000 0.000000 10.000000 
Rope2_Seg05 0.000000 0.000000 0.000000 0.000000 0.000000 0.000000 10.000000 
Rope2_Seg06 0.000000 0.000000 0.000000 0.000000 0.000000 0.000000 10.000000 
Rope2_Seg07 0.000000 0.000000 0.000000 0.000000 0.000000 0.000000 10.000000 
Rope2_Seg09 0.000000 0.000000 0.000000 0.000000 0.000000 0.000000 10.000000 
R_mid_hand01 0.000000 0.000000 0.000000 0.000000 0.000000 0.000000 10.000000 
R_mid_hand02 0.000000 0.000000 0.000000 0.000000 0.000000 0.000000 10.000000 
R_mid_hand03 0.000000 0.000000 0.000000 0.000000 0.000000 0.000000 10.000000 
spine02 0.000000 0.000000 0.000000 0.000000 0.000000 0.000000 10.000000 
spine03 0.000000 0.000000 0.000000 0.000000 0.000000 0.000000 10.000000 
pelvis 0.000000 0.000000 0.000000 0.000000 0.000000 0.000000 10.000000 
null_rope03_connect 0.000000 0.000000 0.000000 0.000000 0.000000 0.000000 10.000000 
null_rope04_connect 0.000000 0.000000 0.000000 0.000000 0.000000 0.000000 10.000000 
Rope3_Seg01 0.000000 0.000000 0.000000 0.000000 0.000000 0.000000 10.000000 
Rope3_Seg02 0.000000 0.000000 0.000000 0.000000 0.000000 0.000000 10.000000 
Rope3_Seg03 0.000000 0.000000 0.000000 0.000000 0.000000 0.000000 10.000000 
Rope3_Seg04 0.000000 0.000000 0.000000 0.000000 0.000000 0.000000 10.000000 
Rope3_Seg05 0.000000 0.000000 0.000000 0.000000 0.000000 0.000000 10.000000 
Rope3_Seg06 0.000000 0.000000 0.000000 0.000000 0.000000 0.000000 10.000000 
Rope3_Seg07 0.000000 0.000000 0.000000 0.000000 0.000000 0.000000 10.000000 
Rope3_Seg08 0.000000 0.000000 0.000000 0.000000 0.000000 0.000000 10.000000 
Rope3_Seg09 0.000000 0.000000 0.000000 0.000000 0.000000 0.000000 10.000000 
R_rear_hand01 0.000000 0.000000 0.000000 0.000000 0.000000 0.000000 10.000000 
R_rear_hand02 0.000000 0.000000 0.000000 0.000000 0.000000 0.000000 10.000000 
R_rear_hand03 0.000000 0.000000 0.000000 0.000000 0.000000 0.000000 10.000000 
Rope4_Seg01 0.000000 0.000000 0.000000 0.000000 0.000000 0.000000 10.000000 
Rope4_Seg02 0.000000 0.000000 0.000000 0.000000 0.000000 0.000000 10.000000 
Rope4_Seg03 0.000000 0.000000 0.000000 0.000000 0.000000 0.000000 10.000000 
Rope4_Seg04 0.000000 0.000000 0.000000 0.000000 0.000000 0.000000 10.000000 
Rope4_Seg05 0.000000 0.000000 0.000000 0.000000 0.000000 0.000000 10.000000 
Rope4_Seg06 0.000000 0.000000 0.000000 0.000000 0.000000 0.000000 10.000000 
Rope4_Seg07 0.000000 0.000000 0.000000 0.000000 0.000000 0.000000 10.000000 
Rope4_Seg08 0.000000 0.000000 0.000000 0.000000 0.000000 0.000000 10.000000 
Rope4_Seg09 0.000000 0.000000 0.000000 0.000000 0.000000 0.000000 10.000000 
L_rear_hand01 0.000000 0.000000 0.000000 0.000000 0.000000 0.000000 10.000000 
L_rear_hand02 0.000000 0.000000 0.000000 0.000000 0.000000 0.000000 10.000000 
L_rear_hand03 0.000000 0.000000 0.000000 0.000000 0.000000 0.000000 10.000000 
#Beginning of Data. Separated by tabs
#Fr	Tx	Ty	Tz	Rx	Ry	Rz	SF
[MASTER]
50 0.000000 0.000000 0.000000 0.001660 0.001660 0.001660 0.000000
51 0.000000 0.000000 0.000000 0.001660 0.001660 0.001660 0.000000
[root]
50 -16.502291 -62.822117 1536.618164 -91.629707 -27.676079 -90.148117 1537.990356
51 -16.502291 -62.822117 1517.630981 -91.629700 -27.676081 -90.148109 1519.020386
[chest]
50 -84.512650 -34.090519 0.000000 -2.380162 0.624784 177.764160 91.129311
51 -84.512650 -34.090519 0.000000 -2.219984 0.732889 179.103668 91.129311
[L_mid_tent01]
50 27.299589 22.177555 -249.918015 4.345738 36.768459 81.963974 252.380905
51 27.299585 22.177563 -249.918015 4.088820 36.482410 81.636826 252.380905
[R_mid_tent01]
50 23.228794 24.509907 226.238495 159.617752 -47.584339 88.774963 228.744751
51 23.228794 24.509907 226.238495 160.047577 -47.312153 88.312782 228.744751
[spine01]
50 -0.361383 -0.195265 0.000000 0.001874 0.001413 15.946067 0.410763
51 -0.361383 -0.195265 0.000000 0.001872 0.001416 15.808760 0.410763
[Bip01_Neck]
50 165.484543 71.581718 0.000119 175.896118 1.177290 24.871183 180.302734
51 165.484543 71.581718 0.000119 175.896118 1.177290 24.871183 180.302734
[L_humerus]
50 -13.983130 -135.272980 -120.471481 161.262726 43.069485 -116.451393 181.680161
51 -13.983130 -135.272980 -120.471481 157.817322 47.735031 -117.302193 181.680161
[R_humerus]
50 -13.983309 -135.273102 125.287651 -170.137314 -47.046375 -103.649017 184.909012
51 -13.983309 -135.273102 125.287651 -170.045563 -53.686085 -100.685585 184.909012
[weapon_bone]
50 235.964890 -300.705902 0.000000 0.000000 -89.951546 -128.212341 382.234833
51 235.964890 -300.705902 0.000000 0.000000 -89.951546 -128.212341 382.234833
[Bip01_Head]
50 188.051819 222.194061 17.583057 2.342402 3.518456 -34.580982 291.621063
51 200.353027 205.531174 14.931258 3.540364 3.186872 -38.985802 287.414948
[eye_left_bone]
50 -24.626970 125.451866 -64.772606 0.000000 -90.000000 -99.840431 143.318359
51 -24.626970 125.451866 -64.772606 0.000000 -90.000000 -99.840431 143.318359
[eye_right_bone]
50 -24.626970 125.451866 64.327362 0.000000 -89.960434 80.159386 143.117676
51 -24.626970 125.451866 64.327362 0.000000 -89.960434 80.159386 143.117676
[L_forearm]
50 322.776093 0.000000 -0.000119 0.000264 0.002332 -77.069588 322.776093
51 322.776093 0.000000 -0.000119 0.000236 0.002335 -78.460968 322.776093
[L_front_hand]
50 241.149185 -0.042021 -3.300071 -178.943848 -2.004749 -19.270741 241.171753
51 241.149185 -0.042021 -3.300071 -178.828293 -1.942094 -22.516441 241.171753
[L_weapon_bone]
50 156.183838 0.000000 0.000000 0.001669 0.001650 0.639641 156.183838
51 156.183838 0.000000 0.000000 0.001664 0.001656 0.288501 156.183838
[L_front_hand01_01]
50 86.095154 20.947098 -0.655860 -0.366594 -0.477154 75.385574 88.609184
51 86.095154 20.947098 -0.655860 -0.366594 -0.477154 75.385574 88.609184
[L_front_hand02_01]
50 86.935165 -11.437475 24.513514 154.403519 -59.888931 -61.371990 91.046425
51 86.935165 -11.437475 24.513514 154.403519 -59.888931 -61.371990 91.046425
[L_front_hand03_01]
50 86.637497 -14.123976 -20.424902 -153.913849 58.118122 -62.702866 90.126129
51 86.637497 -14.123976 -20.424902 -153.913849 58.118130 -62.702866 90.126129
[L_front_hand01_02]
50 71.020905 -0.000179 0.000030 0.001534 0.001777 -8.378850 71.020905
51 71.020905 -0.000179 0.000030 0.001534 0.001777 -8.380171 71.020905
[L_front_hand02_02]
50 71.020927 -0.000119 0.000060 0.001534 0.001777 -8.378850 71.020927
51 71.020927 -0.000119 0.000060 0.001534 0.001777 -8.380171 71.020927
[L_front_hand03_02]
50 71.020905 -0.000060 0.000060 0.001534 0.001777 -8.378850 71.020905
51 71.020905 -0.000060 0.000060 0.001534 0.001777 -8.380171 71.020905
[R_forearm]
50 322.776428 -0.000060 0.000030 0.175716 -0.119912 -56.453999 322.776428
51 322.776428 -0.000060 0.000030 0.173622 -0.124769 -55.457657 322.776428
[R_front_hand]
50 238.847015 -0.006795 2.210259 -1.349464 1.077746 -40.153984 238.857239
51 238.847015 -0.006795 2.210259 -1.416512 0.985896 -43.919926 238.857239
[R_weapon_bone]
50 155.664093 0.002503 -0.000030 0.003483 0.001191 -91.348969 155.664078
51 155.664093 0.002503 -0.000030 0.003485 0.001184 -91.148300 155.664078
[R_front_hand01_01]
50 87.624611 14.231146 22.918642 -154.633499 -59.950619 61.746044 91.683487
51 87.624611 14.231146 22.918642 -154.633514 -59.950634 61.746063 91.683487
[R_front_hand02_01]
50 89.356956 14.367283 -19.491137 154.602661 58.302849 63.744389 92.579636
51 89.356956 14.367283 -19.491137 154.602661 58.302849 63.744389 92.579636
[R_front_hand03_01]
50 87.286232 -22.307278 -0.143439 0.162155 -0.423168 -75.767921 90.091743
51 87.286232 -22.307278 -0.143439 0.162155 -0.423168 -75.767921 90.091743
[R_front_hand01_02]
50 71.020905 0.000060 0.000119 0.001777 0.001534 8.377220 71.020905
51 71.020905 0.000060 0.000119 0.001777 0.001534 8.378541 71.020905
[R_front_hand02_02]
50 71.020844 -0.000030 -0.000119 0.001777 0.001534 8.377220 71.020836
51 71.020844 -0.000030 -0.000119 0.001777 0.001534 8.378541 71.020836
[R_front_hand03_02]
50 71.020905 0.000000 0.000030 0.001777 0.001534 8.377220 71.020905
51 71.020905 0.000000 0.000030 0.001777 0.001534 8.378541 71.020905
[null_rope01_connect]
50 328.732483 0.000000 -0.000238 -137.454636 -51.343521 174.720947 328.732483
51 328.732483 0.000000 -0.000238 -137.511169 -51.646866 174.999710 328.732483
[Rope1_Seg01]
50 0.000000 0.000000 0.000000 107.927979 43.823521 130.964844 0.000000
51 0.000000 0.000000 0.000000 107.870659 43.327492 130.923721 0.000000
[Rope1_Seg02]
50 139.999863 -0.000179 0.000000 -0.257057 -8.429530 3.576880 139.999863
51 139.999863 -0.000179 0.000000 -0.337177 -8.764290 3.966691 139.999863
[Rope1_Seg03]
50 139.999924 0.000060 -0.000060 -1.671915 -12.873141 3.710020 139.999924
51 139.999924 0.000060 -0.000060 -1.879331 -13.255532 4.094954 139.999924
[Rope1_Seg04]
50 139.999924 -0.000060 -0.000119 -6.125686 -19.497419 6.856619 139.999924
51 139.999924 -0.000060 -0.000119 -6.243574 -19.212391 8.061201 139.999924
[Rope1_Seg05]
50 139.999832 0.000119 -0.000060 2.076833 -10.089770 16.562643 139.999832
51 139.999832 0.000119 -0.000060 2.171598 -9.416065 15.395925 139.999832
[Rope1_Seg06]
50 139.999954 0.000119 -0.000060 2.572797 -3.546492 6.602360 139.999954
51 139.999954 0.000119 -0.000060 2.033082 -3.503221 5.994645 139.999954
[Rope1_Seg07]
50 139.999985 0.000060 0.000000 1.268495 -2.044215 3.328460 139.999985
51 139.999985 0.000060 0.000000 1.015254 -2.034770 3.110302 139.999985
[Rope1_Seg09]
50 121.602913 0.000119 -0.000089 -89.793175 -1.359789 0.847147 121.602913
51 121.602913 0.000119 -0.000089 -89.793175 -1.359789 0.847147 121.602913
[L_mid_hand01]
50 103.859421 1.038730 8.195221 116.714340 -56.534355 -23.309610 104.187431
51 103.859421 1.038730 8.195221 111.072212 -46.405254 -16.120430 104.187431
[L_mid_hand02]
50 105.572853 -4.139662 -10.864139 -157.706345 39.599827 -56.652996 106.211075
51 105.572853 -4.139662 -10.864139 -150.148422 34.714119 -44.179684 106.211075
[L_mid_hand03]
50 104.641464 17.579376 -3.913581 -9.986883 15.972098 61.278042 106.179977
51 104.641464 17.579376 -3.913581 -12.876494 13.768143 50.055069 106.179977
[null_rope02_connect]
50 328.732849 0.000179 -0.000119 -123.812645 40.776409 18.543070 328.732849
51 328.732849 0.000179 -0.000119 -123.769630 41.149921 18.372169 328.732849
[Rope2_Seg01]
50 0.000076 0.000112 0.000153 -51.083912 46.535999 49.579044 0.000204
51 0.000076 0.000112 0.000153 -50.493019 44.439068 49.830738 0.000204
[Rope2_Seg02]
50 139.999741 -0.000060 -0.000119 -0.054141 -6.079555 2.263117 139.999756
51 139.999741 -0.000060 -0.000119 -0.149547 -6.057791 2.763501 139.999756
[Rope2_Seg03]
50 140.000107 0.000030 0.000000 -0.172303 -6.225619 3.107070 140.000107
51 140.000107 0.000030 0.000000 -0.208511 -5.540738 3.830066 140.000107
[Rope2_Seg04]
50 139.999802 0.000000 -0.000060 -1.043052 -15.843796 5.706856 139.999802
51 139.999802 0.000000 -0.000060 -1.112477 -16.323870 6.540118 139.999802
[Rope2_Seg05]
50 139.999985 -0.000060 0.000119 -4.502994 -22.277861 3.612971 139.999985
51 139.999985 -0.000060 0.000119 -4.563963 -21.513893 3.191866 139.999985
[Rope2_Seg06]
50 139.999893 -0.000030 -0.000119 -2.221475 -6.874433 0.714907 139.999893
51 139.999893 -0.000030 -0.000119 -2.167388 -6.598027 0.671637 139.999893
[Rope2_Seg07]
50 139.999893 0.000060 -0.000060 -1.446676 -3.571542 0.269448 139.999893
51 139.999893 0.000060 -0.000060 -1.426296 -3.487602 0.257865 139.999893
[Rope2_Seg09]
50 121.338966 0.000089 -0.000060 33.793236 -1.359788 -0.847141 121.338966
51 121.338966 0.000089 -0.000060 33.793236 -1.359788 -0.847141 121.338966
[R_mid_hand01]
50 104.680779 11.144459 -10.335981 -27.242393 40.489655 54.315063 105.778534
51 104.680779 11.144459 -10.335981 -34.380196 34.982605 42.690460 105.778534
[R_mid_hand02]
50 104.070427 2.443552 8.231699 62.809799 -57.118088 23.870659 104.424065
51 104.070427 2.443552 8.231699 68.526596 -47.356216 16.675213 104.424065
[R_mid_hand03]
50 106.028137 -11.221827 -5.996406 -173.677292 14.522148 -63.447239 106.788818
51 106.028137 -11.221827 -5.996406 -171.059631 13.097773 -52.527424 106.788818
[spine02]
50 129.756927 0.001550 0.000119 -0.379704 -4.049127 -2.513986 129.756927
51 129.756927 0.001550 0.000119 -0.336037 -4.050523 -3.119499 129.756927
[spine03]
50 78.652168 0.080592 -4.523822 0.269977 4.316266 -6.157838 78.782196
51 78.639359 0.082821 -4.648813 0.309084 4.296294 -5.670723 78.776688
[pelvis]
50 169.435242 0.051022 0.000000 -0.425257 -0.412324 -0.936532 169.435257
51 169.435242 0.051022 0.000000 -0.283955 -0.337801 -1.263653 169.435257
[null_rope03_connect]
50 -1.257226 -2.466202 137.391083 -153.395462 -88.217545 -95.250381 137.418976
51 -1.257226 -2.466202 137.391083 -150.546234 -88.399902 -97.514458 137.418976
[null_rope04_connect]
50 -1.259640 -2.480268 -137.844437 -153.395462 -88.217545 -95.250381 137.872513
51 -1.259640 -2.480268 -137.844437 -150.546234 -88.399902 -97.514458 137.872513
[Rope3_Seg01]
50 0.000074 0.000009 0.000000 -142.285767 -39.325047 -64.254700 0.000075
51 0.000075 0.000006 0.000000 -142.346725 -39.400669 -64.201187 0.000075
[Rope3_Seg02]
50 139.999924 -0.000119 0.000060 -20.829918 8.314590 -34.788063 139.999924
51 139.999924 -0.000119 0.000060 -20.609859 7.942670 -34.710312 139.999924
[Rope3_Seg03]
50 139.999924 -0.000119 0.000119 -58.949848 29.101295 -46.165226 139.999924
51 139.999924 -0.000119 0.000119 -60.420837 28.622957 -47.146095 139.999924
[Rope3_Seg04]
50 139.999924 0.000119 0.000000 -18.414703 26.776890 -9.972402 139.999924
51 139.999924 0.000119 0.000000 -20.370382 29.392309 -11.124986 139.999924
[Rope3_Seg05]
50 139.999924 -0.000238 0.000060 -10.621092 29.592201 -6.334873 139.999924
51 139.999924 -0.000238 0.000060 -8.750342 27.788191 -4.399405 139.999924
[Rope3_Seg06]
50 139.999893 -0.000119 -0.000060 -0.960516 11.907680 -0.023904 139.999893
51 139.999893 -0.000119 -0.000060 -0.595766 9.753317 0.328082 139.999893
[Rope3_Seg07]
50 139.999771 0.000060 -0.000119 0.278615 5.780207 0.189050 139.999771
51 139.999771 0.000060 -0.000119 0.300844 5.066994 0.272404 139.999771
[Rope3_Seg08]
50 139.999985 -0.000060 0.000000 0.528436 3.132292 0.085375 139.999985
51 139.999985 -0.000060 0.000000 0.509617 2.785767 0.137731 139.999985
[Rope3_Seg09]
50 90.185997 -0.000179 -0.000060 89.793228 -1.359877 -0.847183 90.185997
51 90.185997 -0.000179 -0.000060 89.793228 -1.359877 -0.847183 90.185997
[R_rear_hand01]
50 103.366196 -6.073594 -10.757982 -172.169418 23.463680 -60.350918 104.101845
51 103.366196 -6.073594 -10.757982 -167.878433 21.646051 -49.195717 104.101845
[R_rear_hand02]
50 100.509819 12.039542 -7.992327 -21.248590 33.197388 57.638176 101.543350
51 100.509819 12.039542 -7.992327 -27.014688 28.908627 46.496605 101.543350
[R_rear_hand03]
50 101.539970 5.215704 5.435467 78.641708 -59.773842 13.708426 101.819031
51 101.539970 5.215704 5.435467 81.227913 -49.478275 10.553529 101.819031
[Rope4_Seg01]
50 0.000000 -0.000103 -0.000009 47.739269 -19.830088 -102.886162 0.000104
51 0.000000 -0.000107 -0.000006 47.948517 -19.700991 -103.603119 0.000107
[Rope4_Seg02]
50 139.999985 0.000060 0.000119 15.775686 -57.013062 15.714015 139.999985
51 139.999985 0.000060 0.000119 17.221621 -57.678429 15.110605 139.999985
[Rope4_Seg03]
50 139.999924 0.000000 -0.000238 42.801666 -34.811684 31.420383 139.999924
51 139.999924 0.000000 -0.000238 43.252377 -33.495838 30.399817 139.999924
[Rope4_Seg04]
50 139.999985 0.000000 0.000119 14.533412 -2.601741 17.667145 139.999985
51 139.999985 0.000000 0.000119 16.317505 -2.939871 19.963856 139.999985
[Rope4_Seg05]
50 139.999802 -0.000060 -0.000119 14.817459 1.584523 31.774277 139.999802
51 139.999802 -0.000060 -0.000119 14.639131 2.965771 33.258682 139.999802
[Rope4_Seg06]
50 139.999924 0.000000 0.000060 4.138401 6.200804 19.989670 139.999924
51 139.999924 0.000000 0.000060 3.052229 5.880826 16.777714 139.999924
[Rope4_Seg07]
50 139.999802 0.000000 0.000000 0.417249 3.185293 8.153975 139.999802
51 139.999802 0.000000 0.000000 0.346432 2.958445 7.198868 139.999802
[Rope4_Seg08]
50 139.999924 0.000000 0.000119 -1.624287 1.675299 4.233038 139.999924
51 139.999924 0.000000 0.000119 -1.599477 1.568900 3.784409 139.999924
[Rope4_Seg09]
50 90.185791 0.000060 0.000060 -135.617828 2.228885 0.850567 90.185791
51 90.185791 0.000060 0.000060 -135.617828 2.228885 0.850567 90.185791
[L_rear_hand01]
50 101.696655 -8.392275 -7.654577 -21.626657 -32.967377 123.054398 102.329041
51 101.696655 -8.392275 -7.654577 -27.569057 -28.378988 134.665207 102.329041
[L_rear_hand02]
50 102.726799 -1.568258 5.773216 78.853233 59.166912 166.534714 102.900848
51 102.726799 -1.568258 5.773216 81.424850 48.341957 169.708572 102.900848
[L_rear_hand03]
50 104.552910 9.721220 -10.420293 -171.901260 -23.378487 -120.323540 105.519653
51 104.552910 9.721220 -10.420293 -167.436890 -21.400434 -132.011276 105.519653
